HIERARCHY
ROOT Hips
{
	OFFSET -0.001795 -0.223333 0.028219
	CHANNELS 6 Xposition Yposition Zposition Zrotation Yrotation Xrotation 
	JOINT LeftUpLeg
	{
		OFFSET 0.069520 -0.091406 -0.006815
		CHANNELS 3 Zrotation Yrotation Xrotation
		JOINT LeftLeg
		{
			OFFSET 0.034277 -0.375199 -0.004496
			CHANNELS 3 Zrotation Yrotation Xrotation
			JOINT LeftFoot
			{
				OFFSET -0.013596 -0.397961 -0.043693
				CHANNELS 3 Zrotation Yrotation Xrotation
				JOINT LeftToe
				{
					OFFSET 0.026358 -0.055791 0.119288
					CHANNELS 3 Zrotation Yrotation Xrotation
					End Site
					{
						OFFSET 0.000000 0.000000 0.000000
					}
				}
			}
		}
	}
	JOINT RightUpLeg
	{
		OFFSET -0.067670 -0.090522 -0.004320
		CHANNELS 3 Zrotation Yrotation Xrotation
		JOINT RightLeg
		{
			OFFSET -0.038290 -0.382569 -0.008850
			CHANNELS 3 Zrotation Yrotation Xrotation
			JOINT RightFoot
			{
				OFFSET 0.015774 -0.398415 -0.042312
				CHANNELS 3 Zrotation Yrotation Xrotation
				JOINT RightToe
				{
					OFFSET -0.025372 -0.048144 0.123348
					CHANNELS 3 Zrotation Yrotation Xrotation
					End Site
					{
						OFFSET 0.000000 0.000000 0.000000
					}
				}
			}
		}
	}
	JOINT Spine
	{
		OFFSET -0.002533 0.108963 -0.026696
		CHANNELS 3 Zrotation Yrotation Xrotation
		JOINT Spine1
		{
			OFFSET 0.005487 0.135180 0.001092
			CHANNELS 3 Zrotation Yrotation Xrotation
			JOINT Spine2
			{
				OFFSET 0.001457 0.052922 0.025425
				CHANNELS 3 Zrotation Yrotation Xrotation
				JOINT Neck
				{
					OFFSET -0.002778 0.213870 -0.042857
					CHANNELS 3 Zrotation Yrotation Xrotation
					JOINT Head
					{
						OFFSET 0.005152 0.064970 0.051349
						CHANNELS 3 Zrotation Yrotation Xrotation
						End Site
						{
							OFFSET 0.000000 0.000000 0.000000
						}
					}
				}
				JOINT LeftShoulder
				{
					OFFSET 0.078845 0.121749 -0.034090
					CHANNELS 3 Zrotation Yrotation Xrotation
					JOINT LeftArm
					{
						OFFSET 0.090977 0.030469 -0.008868
						CHANNELS 3 Zrotation Yrotation Xrotation
						JOINT LeftForeArm
						{
							OFFSET 0.259612 -0.012772 -0.027456
							CHANNELS 3 Zrotation Yrotation Xrotation
							JOINT LeftHand
							{
								OFFSET 0.249234 0.008986 -0.001171
								CHANNELS 3 Zrotation Yrotation Xrotation
								End Site
								{
									OFFSET 0.000000 0.000000 0.000000
								}
							}
						}
					}
				}
				JOINT RightShoulder
				{
					OFFSET -0.081759 0.118833 -0.038615
					CHANNELS 3 Zrotation Yrotation Xrotation
					JOINT RightArm
					{
						OFFSET -0.096012 0.032551 -0.009143
						CHANNELS 3 Zrotation Yrotation Xrotation
						JOINT RightForeArm
						{
							OFFSET -0.253742 -0.013329 -0.021401
							CHANNELS 3 Zrotation Yrotation Xrotation
							JOINT RightHand
							{
								OFFSET -0.255298 0.007772 -0.005559
								CHANNELS 3 Zrotation Yrotation Xrotation
								End Site
								{
									OFFSET 0.000000 0.000000 0.000000
								}
							}
						}
					}
				}
			}
		}
	}
}
MOTION
Frames: 12
Frame Time: 0.050000
0.000000 0.946952 0.000000 -0.355142 2.080597 0.574984 -0.391204 0.342611 3.637861 0.855299 -0.024327 -1.574787 -1.683857 -2.195323 2.529139 0.000000 0.000000 0.000000 -1.880430 0.648990 -7.310916 1.077777 0.132684 9.128008 0.022965 -0.160897 0.449500 0.000000 0.000000 0.000000 2.571004 -0.200999 2.753108 -0.163179 0.104689 -0.823018 -1.440395 0.682789 6.003947 4.663217 -1.732346 -14.280274 0.000000 0.000000 0.000000 -24.092630 -2.253280 -1.676598 -46.080435 -6.609106 -2.951565 -10.091086 -23.697624 2.919307 0.000000 0.000000 0.000000 23.426465 -0.900267 -2.091818 49.600348 5.807849 -2.786060 4.457017 23.501140 1.735239 0.000000 0.000000 0.000000 
-0.002408 0.946232 0.005045 -0.296880 1.280455 1.195485 -0.194276 0.353445 3.822327 0.678410 0.038681 -2.773451 -1.630679 -2.410095 1.977132 0.000000 0.000000 0.000000 -1.929969 0.723764 -8.167342 1.396125 0.105089 9.983319 0.424513 1.297820 -0.380982 0.000000 0.000000 0.000000 2.638597 -0.163257 2.037042 -0.665890 0.314656 0.131094 -1.140098 0.835920 5.160691 4.088019 -1.379795 -14.298068 0.000000 0.000000 0.000000 -24.437259 -1.544123 -2.056099 -46.191134 -6.288378 -3.029304 -9.928439 -24.166482 2.954436 0.000000 0.000000 0.000000 23.261600 -0.963867 -2.252089 50.274231 5.324737 -2.890006 4.368170 24.554062 1.783388 0.000000 0.000000 0.000000 
-0.006360 0.945979 0.010143 0.074690 1.299907 1.619739 -0.191270 0.305660 3.293879 0.764333 -0.025478 -1.365236 -1.972157 -3.592007 1.122959 0.000000 0.000000 0.000000 -1.563215 0.818519 -9.059659 0.973248 0.222697 11.187291 -0.167978 0.103117 -1.053890 0.000000 0.000000 0.000000 3.047788 -0.173244 1.932605 -0.746604 0.398768 -1.825050 -1.348258 0.129032 6.706643 3.314877 -0.985425 -14.274053 0.000000 0.000000 0.000000 -23.824702 -1.402189 -1.790289 -46.750472 -6.445356 -3.209622 -10.211512 -22.946332 2.905262 0.000000 0.000000 0.000000 24.225816 -0.919245 -2.478455 49.032734 4.981443 -3.059445 4.384791 25.105452 1.815186 0.000000 0.000000 0.000000 
-0.012446 0.946459 0.015833 0.163077 1.208231 2.090324 0.106207 0.287597 3.245891 0.677076 -0.021971 -1.247028 -2.014084 -3.889169 0.761380 0.000000 0.000000 0.000000 -1.326380 0.876610 -9.552792 1.028361 0.229204 11.766967 0.058806 0.677464 -1.004903 0.000000 0.000000 0.000000 2.927489 -0.181460 2.035508 -0.776715 0.401561 -1.397107 -0.869797 -0.435568 5.859334 2.957930 -0.916171 -13.302733 0.000000 0.000000 0.000000 -24.297370 -0.386791 -2.246859 -46.445060 -6.503932 -3.150423 -9.819474 -22.575030 2.803272 0.000000 0.000000 0.000000 23.991859 -1.199325 -2.884466 48.940229 4.745657 -2.993772 4.885324 25.614380 1.912142 0.000000 0.000000 0.000000 
-0.020559 0.946793 0.021883 0.140238 1.078039 2.310123 0.497790 0.267259 3.225923 0.948614 -0.070381 -0.724576 -1.518624 -3.147400 0.201608 0.000000 0.000000 0.000000 -0.473994 0.936243 -9.654445 0.583412 0.332826 11.957353 -0.231221 -0.053162 -1.067144 0.000000 0.000000 0.000000 3.257896 -0.219811 2.388693 -0.319336 0.199252 -1.749632 -1.233879 -0.600475 5.751443 3.179505 -1.108859 -12.939806 0.000000 0.000000 0.000000 -23.975312 -0.485241 -2.106084 -46.400270 -6.365185 -3.198652 -10.122728 -21.955752 2.786175 0.000000 0.000000 0.000000 23.670040 -1.671018 -3.185163 49.075653 4.981686 -2.874499 5.458155 26.537803 2.103466 0.000000 0.000000 0.000000 
-0.030350 0.946235 0.028534 0.068054 0.936327 2.772551 1.114047 0.194587 2.703310 1.168133 -0.143675 0.421259 -0.814203 -2.163936 -0.790695 0.000000 0.000000 0.000000 0.315698 1.012674 -9.956692 0.403947 0.375426 11.991233 -0.255509 0.014157 -1.314487 0.000000 0.000000 0.000000 3.567995 -0.268338 2.807520 -0.274646 0.190191 -2.217435 -1.167704 -0.854952 5.546283 2.963939 -0.964838 -13.242771 0.000000 0.000000 0.000000 -23.759815 -0.214260 -2.141620 -46.524600 -6.021821 -3.338728 -9.459756 -21.920285 2.667660 0.000000 0.000000 0.000000 23.258849 -2.008138 -3.448564 49.572519 5.028975 -2.823464 5.507509 26.659543 2.102473 0.000000 0.000000 0.000000 
-0.040914 0.945125 0.036027 0.129809 0.440969 3.063668 1.469694 0.143948 2.239979 1.507036 -0.234223 1.510599 -0.217352 -1.097126 -1.267792 0.000000 0.000000 0.000000 1.183980 1.078080 -10.092909 0.118036 0.463689 12.430185 -0.360246 0.020258 -1.828123 0.000000 0.000000 0.000000 3.853135 -0.321947 3.310644 -0.382298 0.242633 -2.513388 -1.509749 -0.718287 5.651268 3.160128 -1.066791 -13.521730 0.000000 0.000000 0.000000 -23.484686 -0.040941 -2.191195 -46.664294 -5.810585 -3.435902 -8.870289 -22.220315 2.595929 0.000000 0.000000 0.000000 23.077615 -2.164438 -3.532501 50.178945 5.092292 -2.829270 5.431907 27.397454 2.150623 0.000000 0.000000 0.000000 
-0.051288 0.943787 0.044300 0.182918 -0.234764 2.830426 1.985301 0.076783 1.551484 1.457302 -0.385630 4.838707 0.572028 -0.190350 -3.039732 0.000000 0.000000 0.000000 1.921698 1.070642 -9.656127 -0.056555 0.500380 12.063563 -0.142630 0.681506 -1.923605 0.000000 0.000000 0.000000 4.218075 -0.432412 4.559955 -0.595157 0.348208 -3.261778 -1.444757 -0.454036 5.935086 3.243312 -1.079425 -14.059801 0.000000 0.000000 0.000000 -23.669046 0.023150 -2.202726 -46.370448 -5.621870 -3.523652 -8.691575 -23.177018 2.685066 0.000000 0.000000 0.000000 23.032855 -2.568514 -3.786450 50.159532 5.223525 -2.798692 5.644476 27.697401 2.223124 0.000000 0.000000 0.000000 
-0.060651 0.942436 0.053018 0.186299 -0.315776 2.779053 2.550087 -0.106046 -0.834365 1.525042 -0.675696 10.732998 0.820612 -0.322718 -4.475076 0.000000 0.000000 0.000000 2.528304 1.010463 -8.897898 -0.169923 0.484144 11.085221 0.055272 1.718585 -2.759081 0.000000 0.000000 0.000000 4.594571 -0.524675 5.439512 -0.450151 0.287042 -3.427478 -1.635731 -0.249751 6.328067 3.388243 -1.058905 -15.013182 0.000000 0.000000 0.000000 -23.452536 0.051954 -2.239599 -47.052709 -6.268661 -3.350654 -8.063626 -23.717499 2.619527 0.000000 0.000000 0.000000 22.804532 -2.427744 -3.600509 50.207283 5.679647 -2.671237 4.523819 27.638183 1.983495 0.000000 0.000000 0.000000 
-0.068447 0.941439 0.062175 0.332625 -0.128908 2.585280 3.087952 -0.364519 -4.779873 1.009164 -0.963737 19.611060 1.241794 0.125892 -5.554112 0.000000 0.000000 0.000000 2.441108 0.843963 -7.552848 0.174714 0.377411 10.236336 0.042557 2.116141 -3.477010 0.000000 0.000000 0.000000 4.883480 -0.639492 6.623635 -0.293909 0.227045 -3.721411 -1.786103 -0.033026 6.510372 3.605674 -1.140367 -15.219260 0.000000 0.000000 0.000000 -23.418404 0.441867 -2.563462 -47.350853 -6.965443 -3.094549 -7.878964 -23.937124 2.594021 0.000000 0.000000 0.000000 21.335823 -2.327510 -3.241929 50.935295 6.339724 -2.477429 3.399067 26.782376 1.694189 0.000000 0.000000 0.000000 
-0.074575 0.940547 0.071953 0.190165 -1.370884 2.798760 3.204161 -0.646027 -9.440956 0.220145 -0.948422 28.410866 1.557599 1.933782 -3.444891 0.000000 0.000000 0.000000 2.619070 0.817635 -7.343209 0.354132 0.379840 10.698115 0.188955 2.952680 -3.998500 0.000000 0.000000 0.000000 5.838550 -0.759598 7.171496 -0.856801 0.469720 -4.412369 -1.445141 0.870020 7.405352 3.303664 -0.830430 -16.349634 0.000000 0.000000 0.000000 -24.488171 0.850861 -2.948139 -46.844092 -6.785215 -3.197984 -7.920993 -25.251034 2.762286 0.000000 0.000000 0.000000 20.519984 -2.527636 -3.181405 50.026237 6.756551 -2.366031 4.462779 26.119538 1.891106 0.000000 0.000000 0.000000 
-0.079202 0.939520 0.082853 0.369147 -1.029896 2.278995 2.194999 -1.041744 -14.116499 -0.067678 -1.169965 37.922623 2.033167 2.977969 -3.496590 0.000000 0.000000 0.000000 3.069011 0.766757 -6.785637 -0.066271 0.538384 12.515148 -0.214786 3.023557 -5.865522 0.000000 0.000000 0.000000 5.623456 -0.890735 8.940893 -0.383420 0.243879 -3.050714 -0.948032 2.004716 5.382057 2.485906 -0.039545 -17.704166 0.000000 0.000000 0.000000 -25.601635 0.487852 -3.386294 -46.343886 -7.249132 -2.683411 -9.883626 -26.714256 3.284484 0.000000 0.000000 0.000000 20.242556 -3.274893 -3.286431 48.522900 6.631705 -2.261273 6.032635 25.263320 2.187364 0.000000 0.000000 0.000000 
